<mxfile host="app.diagrams.net" modified="2021-07-08T23:11:20.154Z" agent="5.0 (Windows NT 10.0; Win64; x64) AppleWebKit/537.36 (KHTML, like Gecko) Chrome/91.0.4472.124 Safari/537.36" etag="J7RxBs1GCENvti0WL-O9" version="14.8.3" type="github">
  <diagram id="64sCmisY7DKSNfKrboj0" name="Page-1">
    <mxGraphModel dx="1414" dy="1953" grid="1" gridSize="10" guides="1" tooltips="1" connect="1" arrows="1" fold="1" page="1" pageScale="1" pageWidth="827" pageHeight="1169" math="0" shadow="0">
      <root>
        <mxCell id="0" />
        <mxCell id="1" parent="0" />
        <mxCell id="7nkMxRO7k62x90OJFkBY-1" value="" style="rounded=0;whiteSpace=wrap;html=1;" vertex="1" parent="1">
          <mxGeometry x="200" y="40" width="450" height="320" as="geometry" />
        </mxCell>
        <mxCell id="7nkMxRO7k62x90OJFkBY-2" value="REGISTRO DE PACIENTES" style="text;html=1;strokeColor=none;fillColor=none;align=center;verticalAlign=middle;whiteSpace=wrap;rounded=0;" vertex="1" parent="1">
          <mxGeometry x="394" y="-10" width="40" height="20" as="geometry" />
        </mxCell>
        <mxCell id="7nkMxRO7k62x90OJFkBY-3" value="Nombre" style="text;html=1;strokeColor=none;fillColor=none;align=center;verticalAlign=middle;whiteSpace=wrap;rounded=0;" vertex="1" parent="1">
          <mxGeometry x="267.5" y="70" width="50" height="30" as="geometry" />
        </mxCell>
        <mxCell id="7nkMxRO7k62x90OJFkBY-5" value="Direcci贸n" style="text;html=1;strokeColor=none;fillColor=none;align=center;verticalAlign=middle;whiteSpace=wrap;rounded=0;" vertex="1" parent="1">
          <mxGeometry x="270" y="110" width="40" height="20" as="geometry" />
        </mxCell>
        <mxCell id="7nkMxRO7k62x90OJFkBY-6" value="Edad" style="text;html=1;strokeColor=none;fillColor=none;align=center;verticalAlign=middle;whiteSpace=wrap;rounded=0;" vertex="1" parent="1">
          <mxGeometry x="272.5" y="150" width="40" height="20" as="geometry" />
        </mxCell>
        <mxCell id="7nkMxRO7k62x90OJFkBY-7" value="Pariente mas cercano" style="text;html=1;strokeColor=none;fillColor=none;align=center;verticalAlign=middle;whiteSpace=wrap;rounded=0;" vertex="1" parent="1">
          <mxGeometry x="255" y="200" width="75" height="20" as="geometry" />
        </mxCell>
        <mxCell id="7nkMxRO7k62x90OJFkBY-8" value="" style="rounded=1;whiteSpace=wrap;html=1;" vertex="1" parent="1">
          <mxGeometry x="240" y="260" width="100" height="30" as="geometry" />
        </mxCell>
        <mxCell id="7nkMxRO7k62x90OJFkBY-9" value="Cuadro de texto" style="rounded=0;whiteSpace=wrap;html=1;" vertex="1" parent="1">
          <mxGeometry x="400" y="72.5" width="134" height="25" as="geometry" />
        </mxCell>
        <mxCell id="7nkMxRO7k62x90OJFkBY-10" value="&lt;span&gt;Cuadro de texto&lt;/span&gt;" style="rounded=0;whiteSpace=wrap;html=1;" vertex="1" parent="1">
          <mxGeometry x="400" y="107.5" width="134" height="25" as="geometry" />
        </mxCell>
        <mxCell id="7nkMxRO7k62x90OJFkBY-11" value="&lt;span&gt;Cuadro de texto&lt;/span&gt;" style="rounded=0;whiteSpace=wrap;html=1;" vertex="1" parent="1">
          <mxGeometry x="400" y="145" width="134" height="25" as="geometry" />
        </mxCell>
        <mxCell id="7nkMxRO7k62x90OJFkBY-12" value="&lt;span&gt;Cuadro de texto&lt;/span&gt;" style="rounded=0;whiteSpace=wrap;html=1;" vertex="1" parent="1">
          <mxGeometry x="400" y="197.5" width="130" height="25" as="geometry" />
        </mxCell>
        <mxCell id="7nkMxRO7k62x90OJFkBY-15" value="" style="rounded=1;whiteSpace=wrap;html=1;" vertex="1" parent="1">
          <mxGeometry x="360" y="260" width="100" height="30" as="geometry" />
        </mxCell>
        <mxCell id="7nkMxRO7k62x90OJFkBY-17" value="" style="rounded=1;whiteSpace=wrap;html=1;" vertex="1" parent="1">
          <mxGeometry x="610" y="50" width="20" height="20" as="geometry" />
        </mxCell>
        <mxCell id="7nkMxRO7k62x90OJFkBY-29" style="edgeStyle=orthogonalEdgeStyle;rounded=0;orthogonalLoop=1;jettySize=auto;html=1;exitX=0.5;exitY=0;exitDx=0;exitDy=0;" edge="1" parent="1" source="7nkMxRO7k62x90OJFkBY-18">
          <mxGeometry relative="1" as="geometry">
            <mxPoint x="700" y="60" as="targetPoint" />
          </mxGeometry>
        </mxCell>
        <mxCell id="7nkMxRO7k62x90OJFkBY-18" value="X" style="text;html=1;strokeColor=none;fillColor=none;align=center;verticalAlign=middle;whiteSpace=wrap;rounded=0;" vertex="1" parent="1">
          <mxGeometry x="600" y="50" width="40" height="20" as="geometry" />
        </mxCell>
        <mxCell id="7nkMxRO7k62x90OJFkBY-35" style="edgeStyle=orthogonalEdgeStyle;rounded=0;orthogonalLoop=1;jettySize=auto;html=1;exitX=0.5;exitY=1;exitDx=0;exitDy=0;" edge="1" parent="1" source="7nkMxRO7k62x90OJFkBY-19">
          <mxGeometry relative="1" as="geometry">
            <mxPoint x="410" y="400" as="targetPoint" />
          </mxGeometry>
        </mxCell>
        <mxCell id="7nkMxRO7k62x90OJFkBY-19" value="CANCELAR" style="text;html=1;strokeColor=none;fillColor=none;align=center;verticalAlign=middle;whiteSpace=wrap;rounded=0;" vertex="1" parent="1">
          <mxGeometry x="390" y="265" width="40" height="20" as="geometry" />
        </mxCell>
        <mxCell id="7nkMxRO7k62x90OJFkBY-34" style="edgeStyle=orthogonalEdgeStyle;rounded=0;orthogonalLoop=1;jettySize=auto;html=1;exitX=0.5;exitY=1;exitDx=0;exitDy=0;" edge="1" parent="1" source="7nkMxRO7k62x90OJFkBY-20">
          <mxGeometry relative="1" as="geometry">
            <mxPoint x="290" y="400" as="targetPoint" />
          </mxGeometry>
        </mxCell>
        <mxCell id="7nkMxRO7k62x90OJFkBY-20" value="ACEPTAR" style="text;html=1;strokeColor=none;fillColor=none;align=center;verticalAlign=middle;whiteSpace=wrap;rounded=0;" vertex="1" parent="1">
          <mxGeometry x="270" y="265" width="40" height="20" as="geometry" />
        </mxCell>
        <mxCell id="7nkMxRO7k62x90OJFkBY-21" value="&lt;b&gt;1&lt;/b&gt;" style="text;html=1;strokeColor=none;fillColor=none;align=center;verticalAlign=middle;whiteSpace=wrap;rounded=0;" vertex="1" parent="1">
          <mxGeometry x="210" y="75" width="40" height="20" as="geometry" />
        </mxCell>
        <mxCell id="7nkMxRO7k62x90OJFkBY-22" value="&lt;b&gt;2&lt;/b&gt;" style="text;html=1;strokeColor=none;fillColor=none;align=center;verticalAlign=middle;whiteSpace=wrap;rounded=0;" vertex="1" parent="1">
          <mxGeometry x="210" y="110" width="40" height="20" as="geometry" />
        </mxCell>
        <mxCell id="7nkMxRO7k62x90OJFkBY-23" value="&lt;b&gt;3&lt;/b&gt;" style="text;html=1;strokeColor=none;fillColor=none;align=center;verticalAlign=middle;whiteSpace=wrap;rounded=0;" vertex="1" parent="1">
          <mxGeometry x="210" y="150" width="40" height="20" as="geometry" />
        </mxCell>
        <mxCell id="7nkMxRO7k62x90OJFkBY-24" value="&lt;b&gt;4&lt;/b&gt;" style="text;html=1;strokeColor=none;fillColor=none;align=center;verticalAlign=middle;whiteSpace=wrap;rounded=0;" vertex="1" parent="1">
          <mxGeometry x="210" y="197.5" width="40" height="20" as="geometry" />
        </mxCell>
        <mxCell id="7nkMxRO7k62x90OJFkBY-25" value="&lt;b&gt;5&lt;/b&gt;" style="text;html=1;strokeColor=none;fillColor=none;align=center;verticalAlign=middle;whiteSpace=wrap;rounded=0;" vertex="1" parent="1">
          <mxGeometry x="290" y="290" width="40" height="20" as="geometry" />
        </mxCell>
        <mxCell id="7nkMxRO7k62x90OJFkBY-26" value="&lt;b&gt;6&lt;/b&gt;" style="text;html=1;strokeColor=none;fillColor=none;align=center;verticalAlign=middle;whiteSpace=wrap;rounded=0;" vertex="1" parent="1">
          <mxGeometry x="420" y="290" width="40" height="20" as="geometry" />
        </mxCell>
        <mxCell id="7nkMxRO7k62x90OJFkBY-27" value="&lt;b&gt;7&lt;/b&gt;" style="text;html=1;strokeColor=none;fillColor=none;align=center;verticalAlign=middle;whiteSpace=wrap;rounded=0;" vertex="1" parent="1">
          <mxGeometry x="600" y="75" width="40" height="20" as="geometry" />
        </mxCell>
        <mxCell id="7nkMxRO7k62x90OJFkBY-28" value="Bot贸n para salir de la ventana" style="text;html=1;strokeColor=none;fillColor=none;align=center;verticalAlign=middle;whiteSpace=wrap;rounded=0;" vertex="1" parent="1">
          <mxGeometry x="710" y="60" width="40" height="20" as="geometry" />
        </mxCell>
        <mxCell id="7nkMxRO7k62x90OJFkBY-30" value="Bot贸n para guardar registro" style="text;html=1;strokeColor=none;fillColor=none;align=center;verticalAlign=middle;whiteSpace=wrap;rounded=0;" vertex="1" parent="1">
          <mxGeometry x="270" y="420" width="40" height="20" as="geometry" />
        </mxCell>
        <mxCell id="7nkMxRO7k62x90OJFkBY-33" value="Bot贸n para cancelar registro" style="text;html=1;strokeColor=none;fillColor=none;align=center;verticalAlign=middle;whiteSpace=wrap;rounded=0;" vertex="1" parent="1">
          <mxGeometry x="390" y="420" width="40" height="20" as="geometry" />
        </mxCell>
      </root>
    </mxGraphModel>
  </diagram>
</mxfile>
